HIERARCHY
ROOT Hips
{
	OFFSET 0.000000 0.000000 0.000000
	CHANNELS 6 Xposition Yposition Zposition Zrotation Xrotation Yrotation
	JOINT Spine
	{
		OFFSET 0.000000 -0.000001 8.775555
		CHANNELS 6 Xposition Yposition Zposition Zrotation Xrotation Yrotation
		JOINT Spine1
		{
			OFFSET 0.000000 -0.000003 19.857292
			CHANNELS 6 Xposition Yposition Zposition Zrotation Xrotation Yrotation
			JOINT Neck
			{
				OFFSET 0.000000 -0.000004 21.997671
				CHANNELS 6 Xposition Yposition Zposition Zrotation Xrotation Yrotation
				JOINT Head
				{
					OFFSET 0.000000 -2.140382 16.587940
					CHANNELS 6 Xposition Yposition Zposition Zrotation Xrotation Yrotation
					End Site
					{
						OFFSET 0.000000 -0.000003 21.403793
					}
				}
			}
			JOINT LeftShoulder
			{
				OFFSET 4.271831 0.466839 17.948576
				CHANNELS 6 Xposition Yposition Zposition Zrotation Xrotation Yrotation
				JOINT LeftArm
				{
					OFFSET 12.381062 0.000000 0.000000
					CHANNELS 6 Xposition Yposition Zposition Zrotation Xrotation Yrotation
					JOINT LeftForeArm
					{
						OFFSET 32.107460 0.000000 0.000000
						CHANNELS 6 Xposition Yposition Zposition Zrotation Xrotation Yrotation
						JOINT LeftHand
						{
							OFFSET 28.716036 0.000000 0.000000
							CHANNELS 6 Xposition Yposition Zposition Zrotation Xrotation Yrotation
							End Site
							{
								OFFSET 16.052847 0.000000 0.000000
							}
						}
					}
				}
			}
			JOINT RightShoulder
			{
				OFFSET -4.280560 0.466839 17.948576
				CHANNELS 6 Xposition Yposition Zposition Zrotation Xrotation Yrotation
				JOINT RightArm
				{
					OFFSET -12.381062 0.000000 0.000000
					CHANNELS 6 Xposition Yposition Zposition Zrotation Xrotation Yrotation
					JOINT RightForeArm
					{
						OFFSET -32.107460 0.000000 0.000000
						CHANNELS 6 Xposition Yposition Zposition Zrotation Xrotation Yrotation
						JOINT RightHand
						{
							OFFSET -28.716036 0.000000 0.000000
							CHANNELS 6 Xposition Yposition Zposition Zrotation Xrotation Yrotation
							End Site
							{
								OFFSET -16.052847 0.000000 0.000000
							}
						}
					}
				}
			}
		}
	}
	JOINT LeftUpLeg
	{
		OFFSET 10.701895 0.000000 0.000000
		CHANNELS 6 Xposition Yposition Zposition Zrotation Xrotation Yrotation
		JOINT LeftLeg
		{
			OFFSET 0.000000 0.000009 -55.700161
			CHANNELS 6 Xposition Yposition Zposition Zrotation Xrotation Yrotation
			JOINT LeftFoot
			{
				OFFSET 0.000000 0.000007 -44.745441
				CHANNELS 6 Xposition Yposition Zposition Zrotation Xrotation Yrotation
				JOINT LeftToeBase
				{
					OFFSET 0.000000 -16.052841 -6.956234
					CHANNELS 6 Xposition Yposition Zposition Zrotation Xrotation Yrotation
					End Site
					{
						OFFSET 0.000000 -4.280758 0.000000
					}
				}
			}
		}
	}
	JOINT RightUpLeg
	{
		OFFSET -10.701895 0.000000 0.000000
		CHANNELS 6 Xposition Yposition Zposition Zrotation Xrotation Yrotation
		JOINT RightLeg
		{
			OFFSET 0.000000 0.000009 -55.700161
			CHANNELS 6 Xposition Yposition Zposition Zrotation Xrotation Yrotation
			JOINT RightFoot
			{
				OFFSET 0.000000 0.000007 -44.745441
				CHANNELS 6 Xposition Yposition Zposition Zrotation Xrotation Yrotation
				JOINT RightToeBase
				{
					OFFSET 0.000000 -16.052841 -6.956234
					CHANNELS 6 Xposition Yposition Zposition Zrotation Xrotation Yrotation
					End Site
					{
						OFFSET 0.000000 -4.280758 0.000000
					}
				}
			}
		}
	}
}
MOTION
Frames: 6
Frame Time: 0.041667
-4.711705 8.823240 99.434196 86.351158 9.580895 -3.171432 0.000000 -0.000002 8.775564 -6.540308 -8.345492 -0.157194 -0.000001 -0.000003 19.857285 -2.080427 0.690882 -13.271418 0.000003 -0.000003 21.997665 -28.805175 15.447588 22.364724 0.000000 -2.140392 16.587931 -28.179945 14.078073 -35.372337 4.271831 0.466838 17.948561 -10.087424 0.673374 -15.907413 12.381054 -0.000001 -0.000002 -1.364960 16.010201 10.068788 32.107452 0.000000 -0.000016 0.339143 -26.356353 -14.384228 28.716061 -0.000002 -0.000003 -2.191971 -26.987759 37.764741 -4.280559 0.466838 17.948570 -6.563106 7.658276 6.621816 -12.381064 0.000003 -0.000008 19.071435 19.984497 -36.614779 -32.107452 -0.000008 -0.000010 62.738559 8.163894 18.583000 -28.716030 0.000001 0.000003 4.003299 -3.460623 -5.241584 10.701895 -0.000002 0.000005 -6.053276 -16.249017 -9.046186 -0.000004 0.000008 -55.700146 13.517355 30.170892 3.755720 0.000001 0.000011 -44.745449 19.099082 -12.190889 4.614343 -0.000007 -16.052843 -6.956233 -0.000003 -0.000002 -0.000001 -10.701895 -0.000001 0.000009 7.747886 -20.880776 11.380887 0.000000 0.000013 -55.700165 2.643131 37.213630 -7.180088 0.000001 0.000013 -44.745441 -2.157956 -20.611889 -5.266913 0.000000 -16.052841 -6.956241 -0.000000 0.000001 -0.000000 
-4.713937 9.170601 99.552361 86.113017 9.580180 -3.109379 -0.000001 -0.000003 8.775549 -6.532913 -8.404310 -0.242033 -0.000001 -0.000003 19.857296 -2.084857 0.624262 -13.030904 -0.000000 -0.000003 21.997688 -28.822988 15.559559 22.455476 -0.000006 -2.140383 16.587959 -28.297247 13.580391 -35.502750 4.271829 0.466838 17.948584 -10.130628 0.736527 -15.959314 12.381060 0.000000 -0.000005 -1.280249 15.872907 10.054485 32.107460 0.000010 0.000007 0.295932 -26.312025 -14.379078 28.716034 0.000003 -0.000005 -2.173534 -26.945153 37.884143 -4.280559 0.466838 17.948587 -6.540058 7.478843 6.833972 -12.381067 -0.000002 -0.000010 18.549148 19.950067 -36.155384 -32.107456 -0.000000 -0.000002 64.134998 7.672246 20.304165 -28.716049 0.000002 0.000006 4.213993 -5.512587 -8.224907 10.701893 -0.000001 -0.000003 -5.744838 -15.794642 -8.673301 -0.000004 0.000009 -55.700157 13.598933 29.117342 3.694602 0.000002 0.000008 -44.745441 19.300720 -12.179501 4.490598 -0.000007 -16.052843 -6.956241 0.000000 -0.000001 0.000000 -10.701896 -0.000002 -0.000008 7.931485 -20.745472 11.525762 -0.000001 0.000009 -55.700165 2.463105 36.841480 -6.972877 0.000001 0.000011 -44.745445 -1.966941 -20.191118 -5.532653 0.000000 -16.052841 -6.956234 0.000000 0.000002 0.000000 
-4.726026 9.526480 99.666534 85.904519 9.574962 -3.052672 -0.000000 -0.000002 8.775560 -6.542531 -8.429252 -0.338281 0.000002 -0.000004 19.857300 -2.098989 0.517716 -12.761711 0.000001 -0.000005 21.997677 -28.859168 15.664510 22.534691 0.000003 -2.140398 16.587931 -28.426424 13.114294 -35.598570 4.271829 0.466838 17.948576 -10.175643 0.797968 -16.039943 12.381061 -0.000003 0.000009 -1.356134 16.062585 10.157979 32.107449 0.000006 0.000009 0.388379 -26.475311 -14.483881 28.716043 -0.000002 -0.000016 -2.145532 -27.089905 37.971238 -4.280562 0.466839 17.948580 -6.406242 7.218151 7.072112 -12.381065 0.000002 -0.000003 17.671386 19.704112 -35.624129 -32.107468 -0.000008 0.000001 65.724834 7.166515 21.496981 -28.716045 0.000004 -0.000001 4.019732 -7.302851 -10.829034 10.701896 -0.000000 0.000010 -5.421585 -15.388925 -8.272203 -0.000003 0.000008 -55.700146 14.127375 28.107296 3.437279 -0.000004 0.000010 -44.745445 19.171076 -12.198025 4.058167 -0.000000 -16.052845 -6.956234 0.000002 -0.000000 0.000001 -10.701895 0.000000 0.000009 8.097072 -20.617281 11.643931 0.000000 0.000013 -55.700157 2.158610 36.494244 -6.619922 0.000000 0.000014 -44.745445 -1.699377 -19.774123 -5.832338 0.000000 -16.052841 -6.956234 -0.000000 -0.000000 -0.000000 
-4.743596 9.889861 99.787697 85.676718 9.572368 -3.006536 0.000000 0.000002 8.775548 -6.537764 -8.399355 -0.408361 0.000000 -0.000003 19.857296 -2.119381 0.311273 -12.530819 -0.000006 -0.000003 21.997658 -28.891297 15.783679 22.671582 -0.000005 -2.140393 16.587961 -28.541713 12.668763 -35.694982 4.271830 0.466838 17.948557 -10.169746 0.924041 -16.080449 12.381067 0.000001 0.000021 -1.218200 15.544891 10.051333 32.107456 0.000001 0.000003 0.272660 -26.234471 -14.331504 28.716043 -0.000004 0.000002 -2.145101 -26.862487 37.907765 -4.280562 0.466839 17.948565 -6.361645 7.080921 7.393377 -12.381068 -0.000003 -0.000004 16.874259 19.236873 -35.043546 -32.107471 -0.000012 -0.000014 67.281168 6.682270 22.592073 -28.716043 -0.000003 0.000007 3.753634 -9.024237 -13.182377 10.701896 0.000001 -0.000009 -5.113831 -15.009016 -7.886877 -0.000004 0.000009 -55.700157 14.721537 27.221632 3.202069 -0.000003 0.000005 -44.745434 18.917898 -12.226590 3.561790 0.000005 -16.052845 -6.956234 -0.000000 0.000000 0.000001 -10.701896 0.000002 -0.000009 8.381625 -20.466426 11.814503 0.000000 0.000012 -55.700172 1.907341 36.115937 -6.362469 0.000001 0.000013 -44.745438 -1.559014 -19.343837 -6.126412 -0.000001 -16.052843 -6.956234 -0.000000 0.000000 -0.000000 
-4.766720 10.264050 99.901474 85.487160 9.559250 -2.970306 -0.000001 -0.000002 8.775547 -6.542563 -8.404286 -0.507823 0.000001 -0.000003 19.857294 -2.133056 0.183386 -12.210181 -0.000001 -0.000007 21.997684 -28.920746 15.923008 22.753660 0.000005 -2.140385 16.587938 -28.657384 12.198375 -35.863636 4.271828 0.466837 17.948589 -10.209243 0.995287 -16.176101 12.381057 -0.000001 -0.000000 -1.205440 15.434479 10.029399 32.107464 0.000015 0.000011 0.261284 -26.249438 -14.289344 28.716053 -0.000004 0.000005 -2.102588 -26.866583 37.954098 -4.280562 0.466837 17.948584 -6.145321 6.790661 7.587585 -12.381064 0.000001 -0.000011 16.172537 19.180257 -34.601284 -32.107471 -0.000012 0.000011 68.521264 6.456850 24.266016 -28.716042 -0.000009 -0.000007 3.522035 -10.852424 -15.610052 10.701895 0.000000 -0.000001 -4.836630 -14.682240 -7.487597 -0.000004 0.000008 -55.700150 14.968696 26.401914 3.036169 -0.000002 0.000009 -44.745438 18.852589 -12.166724 3.088899 0.000000 -16.052841 -6.956233 0.000002 -0.000001 -0.000002 -10.701895 -0.000001 -0.000006 8.615572 -20.305036 11.984328 0.000001 0.000012 -55.700161 1.747833 35.719847 -6.151891 0.000000 0.000008 -44.745445 -1.490693 -18.928090 -6.423714 0.000000 -16.052839 -6.956234 -0.000000 0.000001 0.000000 
-4.786695 10.633518 100.024506 85.338576 9.534926 -2.916459 -0.000001 0.000002 8.775559 -6.570217 -8.415990 -0.614903 -0.000000 -0.000002 19.857283 -2.150431 0.083562 -11.901861 -0.000002 -0.000003 21.997673 -28.978724 16.053682 22.824073 0.000001 -2.140393 16.587950 -28.802983 11.728087 -36.024071 4.271833 0.466839 17.948584 -10.250334 1.094956 -16.286487 12.381064 -0.000002 -0.000001 -1.246566 15.367313 10.041986 32.107460 0.000010 0.000015 0.327263 -26.301081 -14.252991 28.716034 -0.000002 -0.000007 -2.104441 -26.911608 37.974458 -4.280559 0.466839 17.948584 -5.919674 6.453712 7.800185 -12.381062 0.000002 -0.000004 15.714657 19.297163 -34.312989 -32.107456 -0.000003 0.000014 69.337690 6.528297 26.442423 -28.716047 -0.000003 -0.000007 3.360273 -12.680904 -18.184595 10.701894 0.000003 -0.000001 -4.528174 -14.418509 -7.112819 -0.000002 0.000008 -55.700157 14.995311 25.735752 2.881561 -0.000003 0.000011 -44.745445 18.854170 -12.061476 2.823178 -0.000002 -16.052843 -6.956233 -0.000005 -0.000002 -0.000000 -10.701896 0.000002 -0.000005 8.822052 -20.138632 12.112208 -0.000000 0.000013 -55.700169 1.487824 35.348268 -5.861104 0.000002 0.000011 -44.745438 -1.350271 -18.478484 -6.665061 0.000000 -16.052839 -6.956234 -0.000000 0.000000 0.000000 
